<svg xmlns="http://www.w3.org/2000/svg" width="64" height="64" viewBox="0 0 24 24" fill="none" stroke='#888888' stroke-width="2"
 stroke-linecap="round" stroke-linejoin="round" class="lucide lucide-file-type2-icon lucide-file-type-2">
 
  <!-- File icon -->
  <path d="M4 22h14a2 2 0 0 0 2-2V7l-5-5H6a2 2 0 0 0-2 2v4"/>
  <path d="M14 2v4a2 2 0 0 0 2 2h4"/>

  <!-- T -->
  <path  d="M1 13v-1h6v1"/>
  <path  d="M4 12v6"/>
  <path  d="M3 18h2"/>

  <!-- E -->
  <path  d="M8 14v6"/>
  <path   d="M8 14h4"/>
  <path   d="M8 17h3"/>
  <path   d="M8 20h4"/>

  <!-- X -->
  <path   d="M14 12l4 6"/>
  <path   d="M18 12l-4 6"/>
</svg>
