<svg xmlns="http://www.w3.org/2000/svg" width="32" height="32" viewBox="0 0 32 32" fill="none" stroke='#888888' stroke-width="2" stroke-linecap="round" stroke-linejoin="round" class="lucide lucide-notebook-pen-icon lucide-notebook-pen">

<path d="M13.4 2H6a2 2 0 0 0-2 2v20a2 2 0 0 0 2 2h16a2 2 0 0 0 2-2v-7.4"/>
<path d="M2 6h4"/>
<path d="M2 10h4"/>
<path d="M2 14h4"/>
<path d="M2 18h4"/>
<path d="M2 22h4"/>

<g transform="translate(6,-1)">
  <path d="M21.174 6.812a1 1 0 0 0-3.986-3.987L3.842 16.174a2 2 0 0 0-.5.83l-1.321 4.352a.5.5 0 0 0 .623.622l4.353-1.32a2 2 0 0 0 .83-.497z"/>
  <path d="m15 5 4 4"/>
</g>
</svg>